<mxfile host="app.diagrams.net" modified="2022-11-25T06:25:56.831Z" agent="5.0 (Windows NT 10.0; Win64; x64) AppleWebKit/537.36 (KHTML, like Gecko) Chrome/107.0.0.0 Safari/537.36" version="20.6.0" etag="7HfOnnhLVtPO5eTEdAW-" type="github">
  <diagram id="IwshfbUZRfSekwDA2pXq" name="Page-1">
    <mxGraphModel dx="1376" dy="340" grid="1" gridSize="10" guides="1" tooltips="1" connect="1" arrows="1" fold="1" page="1" pageScale="1" pageWidth="850" pageHeight="1100" math="0" shadow="0">
      <root>
        <mxCell id="0" />
        <mxCell id="1" parent="0" />
        <mxCell id="ZmxpeF18p0mKGzth2N0s-3" value="raised&lt;br&gt;amount" style="edgeStyle=orthogonalEdgeStyle;rounded=0;orthogonalLoop=1;jettySize=auto;html=1;exitX=1;exitY=0.5;exitDx=0;exitDy=0;entryX=0;entryY=0.5;entryDx=0;entryDy=0;" edge="1" parent="1">
          <mxGeometry relative="1" as="geometry">
            <mxPoint x="157" y="220" as="sourcePoint" />
            <mxPoint x="217" y="220" as="targetPoint" />
          </mxGeometry>
        </mxCell>
        <mxCell id="ZmxpeF18p0mKGzth2N0s-7" value="type&lt;br&gt;of" style="edgeStyle=orthogonalEdgeStyle;rounded=0;orthogonalLoop=1;jettySize=auto;html=1;exitX=0;exitY=0.5;exitDx=0;exitDy=0;entryX=1;entryY=0.5;entryDx=0;entryDy=0;" edge="1" parent="1" source="ZmxpeF18p0mKGzth2N0s-1" target="ZmxpeF18p0mKGzth2N0s-6">
          <mxGeometry relative="1" as="geometry" />
        </mxCell>
        <mxCell id="ZmxpeF18p0mKGzth2N0s-1" value="Angel Round Meta" style="rounded=0;whiteSpace=wrap;html=1;" vertex="1" parent="1">
          <mxGeometry x="80" y="200" width="80" height="40" as="geometry" />
        </mxCell>
        <mxCell id="ZmxpeF18p0mKGzth2N0s-2" value="500000" style="rounded=0;whiteSpace=wrap;html=1;" vertex="1" parent="1">
          <mxGeometry x="220" y="200" width="50" height="40" as="geometry" />
        </mxCell>
        <mxCell id="ZmxpeF18p0mKGzth2N0s-6" value="funding&lt;br&gt;round" style="text;html=1;strokeColor=none;fillColor=none;align=center;verticalAlign=middle;whiteSpace=wrap;rounded=0;" vertex="1" parent="1">
          <mxGeometry x="-23" y="212.5" width="50" height="15" as="geometry" />
        </mxCell>
      </root>
    </mxGraphModel>
  </diagram>
</mxfile>
